<svg width="25" height="25" viewBox="0 0 25 25" fill="none" xmlns="http://www.w3.org/2000/svg">
<path d="M24.422 23.1405L17.8435 16.5618C19.2858 14.8325 20.1562 12.6104 20.1562 10.1875C20.1562 4.69064 15.6844 0.21875 10.1875 0.21875C4.69064 0.21875 0.21875 4.69064 0.21875 10.1875C0.21875 15.6844 4.69064 20.1563 10.1875 20.1563C12.6104 20.1563 14.8325 19.2858 16.5618 17.8435L23.1405 24.4222C23.3175 24.5991 23.5495 24.6877 23.7812 24.6877C24.013 24.6877 24.245 24.5991 24.422 24.4222C24.7761 24.0681 24.7761 23.4944 24.422 23.1405ZM2.03125 10.1875C2.03125 5.69024 5.68978 2.03125 10.1875 2.03125C14.6852 2.03125 18.3437 5.69024 18.3437 10.1875C18.3437 14.6848 14.6852 18.3438 10.1875 18.3438C5.68978 18.3438 2.03125 14.6848 2.03125 10.1875Z" fill="#27B0C7"/>
</svg>
