<svg width="26" height="26" viewBox="0 0 26 26" fill="none" xmlns="http://www.w3.org/2000/svg">
<path d="M25.4464 23.638L18.7251 16.9165C20.1987 15.1496 21.0881 12.8793 21.0881 10.4038C21.0881 4.78769 16.5191 0.21875 10.9029 0.21875C5.28674 0.21875 0.717773 4.78769 0.717773 10.4038C0.717773 16.02 5.28674 20.5889 10.9029 20.5889C13.3784 20.5889 15.6488 19.6996 17.4157 18.226L24.1372 24.9475C24.3179 25.1282 24.555 25.2188 24.7918 25.2188C25.0286 25.2188 25.2656 25.1282 25.4464 24.9475C25.8082 24.5857 25.8082 23.9995 25.4464 23.638ZM2.56962 10.4038C2.56962 5.80898 6.30758 2.07058 10.9029 2.07058C15.4983 2.07058 19.2362 5.80898 19.2362 10.4038C19.2362 14.9987 15.4983 18.7371 10.9029 18.7371C6.30758 18.7371 2.56962 14.9987 2.56962 10.4038Z" fill="white"/>
</svg>
